# xmcd CD database file
#
# Track frame offsets:
#	150
#	17019
#	32300
#	52150
#	67309
#	83193
#	100578
#	116756
#	135393
#	149893
#
# Disc length: 2201 seconds
#
# Revision: 0
# Processed by: cddbd v1.5.1PL2 Copyright (c) Steve Scherf et al.
# Submitted via: CDex 1.51
#
DISCID=8d08970a
DTITLE=Joan Eguita - Two Suitcases
DYEAR=2005
DGENRE=Country
TTITLE0=I Need Ro Hear It From You
TTITLE1=Two Suitcases
TTITLE2=Kiss Me Awake
TTITLE3=Heading For Shore
TTITLE4=Time To Cry
TTITLE5=Walk A Mile In My Shoes
TTITLE6=Before It's Begun
TTITLE7=Where's The Time Gone
TTITLE8=You Flew
TTITLE9=America
EXTD=YEAR: 2005
EXTT0=
EXTT1=
EXTT2=
EXTT3=
EXTT4=
EXTT5=
EXTT6=
EXTT7=
EXTT8=
EXTT9=
PLAYORDER=
